<svg version="1.1" xmlns="http://www.w3.org/2000/svg" xmlns:xlink="http://www.w3.org/1999/xlink" width="74.20832" height="74.20832" viewBox="0,0,74.20832,74.20832"><defs><radialGradient cx="235.65426" cy="178.34622" r="37.10416" gradientUnits="userSpaceOnUse" id="color-1"><stop offset="0" stop-color="#0077b8"/><stop offset="1" stop-color="#005684"/></radialGradient></defs><g transform="translate(-202.89584,-142.89584)"><g data-paper-data="{&quot;isPaintingLayer&quot;:true}" stroke-linecap="butt" stroke-linejoin="miter" stroke-miterlimit="10" stroke-dasharray="" stroke-dashoffset="0" style="mix-blend-mode: normal"><path d="M202.89584,180c0,-20.49206 16.6121,-37.10416 37.10416,-37.10416c20.49206,0 37.10416,16.6121 37.10416,37.10416c0,20.49206 -16.6121,37.10416 -37.10416,37.10416c-20.49206,0 -37.10416,-16.6121 -37.10416,-37.10416z" fill="url(#color-1)" fill-rule="evenodd" stroke="#000000" stroke-width="0"/><path d="M203.42836,173.72181c-0.06082,0.35548 -0.11624,0.71364 -0.16625,1.07182c0.05001,-0.36493 0.10543,-0.72311 0.16625,-1.07182z" fill="#74b140" fill-rule="evenodd" stroke="none" stroke-width="1"/><path d="M203.7203,173.30822c-0.11104,0.12536 -0.20971,0.26116 -0.29465,0.40548c0.04866,-0.28293 0.10001,-0.56406 0.15408,-0.8434v-0.00811c0.05541,-0.28113 0.11354,-0.55956 0.17436,-0.83799c0.08833,0.03602 0.17043,0.08574 0.24328,0.14733c0.15003,0.1284 0.31492,0.35818 0.27032,0.56903c-0.05271,0.2514 -0.37844,0.38521 -0.54739,0.56767z" fill="#74b140" fill-rule="evenodd" stroke="none" stroke-width="1"/><path d="M207.89406,162.14805c-0.18753,0.17511 -0.40683,0.31274 -0.64606,0.40548c0.13607,-0.25681 0.27573,-0.5109 0.419,-0.76231c0.99937,-1.76094 2.14123,-3.43713 3.41415,-5.01174c0.20544,-0.255 0.41404,-0.50774 0.62578,-0.75824c0.26114,0.0727 0.494,0.22307 0.6677,0.43117c0.26492,0.32303 0.22166,0.49468 0.05137,0.76501c0.15698,-0.01944 0.31093,-0.05848 0.45819,-0.11624c0.17731,-0.04578 0.36333,-0.04578 0.54065,0c0.35142,0.09867 0.62985,0.3744 0.8434,0.65823c0.34735,0.46089 0.56903,1.01235 0.82178,1.52866l0.80284,1.63949c0.22977,0.46766 0.66634,1.48001 -0.00947,1.81926c-0.25109,0.10899 -0.54258,0.0626 -0.74743,-0.11895c-0.14463,-0.10948 -0.35278,-0.42846 -0.55956,-0.52307c0.06911,0.5806 0.23064,1.1464 0.47847,1.67599c0.04015,0.07458 0.03275,0.1658 -0.01892,0.23292c-0.05167,0.06713 -0.13793,0.09764 -0.22032,0.07794c-0.18973,-0.04144 -0.38566,-0.04604 -0.57714,-0.01351c0.09731,0.44738 0.08786,0.90828 -0.31763,1.20969c-0.05697,0.03238 -0.12564,0.03681 -0.18631,0.01202c-0.06066,-0.02479 -0.10657,-0.07606 -0.12455,-0.13907c-0.42726,-1.27928 -1.39042,-2.30907 -2.63833,-2.8208c-0.08605,-0.03025 -0.14362,-0.11153 -0.14362,-0.20274c0,-0.09122 0.05758,-0.17249 0.14362,-0.20274c0.48117,-0.12705 1.00154,-0.11624 1.46918,-0.2906c0.24541,-0.0767 0.45688,-0.23566 0.59876,-0.45008c0.11759,-0.22032 -0.0027,-0.44198 -0.06758,-0.66498c-0.22706,-0.77447 -0.56092,-1.84494 -1.54623,-1.86656c-0.95558,-0.02568 -0.75284,1.14481 -1.00018,1.75708c-0.21221,0.5055 -0.65417,0.88666 -1.21643,0.69607c-0.20408,-0.06892 -0.42846,-0.246 -0.63661,-0.09326c-0.11102,0.11025 -0.1964,0.24362 -0.25005,0.39061c-0.12299,0.25951 -0.22436,0.52713 -0.42846,0.73528z" fill="#74b140" fill-rule="evenodd" stroke="none" stroke-width="1"/><path d="M221.38438,196.89367c0.32303,1.12453 -0.87719,1.71112 -1.24077,2.61129c-0.44468,1.09615 -0.00947,2.34773 -0.50415,3.44524c-0.19779,0.44414 -0.55668,0.79675 -1.00424,0.98667c-0.54739,0.24464 -1.10291,0.36493 -1.54489,0.7988c-0.80827,0.79339 -1.1394,2.02064 -1.67192,3.05327c-0.42846,-0.3744 -0.83393,-0.76095 -1.23942,-1.15426c-0.6704,-0.65012 -1.31917,-1.32051 -1.9382,-2.0193c-0.99593,-1.12148 -1.92303,-2.30222 -2.77619,-3.53578c-2.22414,-3.21339 -3.92399,-6.75953 -5.03607,-10.506l0.01487,0.00811c0.81908,-0.6677 1.32727,-2.03417 2.59237,-1.68409c0.06276,0.01878 0.11362,0.065 0.13832,0.12568c0.02469,0.06068 0.02055,0.12929 -0.01128,0.18654c-0.03379,0.07299 -0.06622,0.14733 -0.10001,0.22166l2.16256,0.27707c0.59742,0.07569 1.38809,0.0392 1.81385,0.52983c0.18246,0.21085 0.27573,0.48252 0.45279,0.69607c0.22332,0.24526 0.50717,0.42751 0.82312,0.52848c0.52037,0.19327 1.0894,0.25815 1.60164,0.48252c0.43147,0.17058 0.80456,0.46202 1.07453,0.83934c0.11863,0.17746 0.19238,0.38108 0.21491,0.59335c0.03109,0.31628 -0.07975,0.49468 0.23653,0.7096c0.31628,0.21491 0.7096,0.36359 1.05155,0.54065c0.2852,0.14867 0.56903,0.30816 0.85961,0.44332c0.59876,0.28654 1.19077,0.18112 1.80304,0.35818c0.23119,0.07106 0.4402,0.20046 0.60687,0.37574c0.07634,0.08871 0.15804,0.17268 0.24464,0.2514c0.16895,0.13246 0.37169,0.12976 0.57444,0.16759c0.39738,0.07435 0.69472,0.27167 0.8015,0.66904z" fill="#74b140" fill-rule="evenodd" stroke="none" stroke-width="1"/><path d="M203.2434,180.90895c-0.10365,-0.05931 -0.23015,-0.06261 -0.33675,-0.00878c-0.01081,-0.30005 -0.01081,-0.59876 -0.01081,-0.90017c0,-0.28023 0.00541,-0.56092 0.01622,-0.84206c0,-0.0892 0,-0.17976 0,-0.27032c0.00676,-0.19463 0.01351,-0.39061 0.02298,-0.58525c0.00541,-0.12165 0.01757,-0.24328 0.01757,-0.36359c0.01081,-0.21221 0.02432,-0.41223 0.0392,-0.61768c0.01081,-0.16759 0.02568,-0.33384 0.0392,-0.50009l0.02973,-0.21355c0.05497,-0.60912 0.1248,-1.21464 0.20949,-1.81655c0.0919,0.10814 0.23517,0.14597 0.44198,0.02298c0.20679,-0.12299 0.29601,-0.35952 0.36629,-0.57578c0.13516,-0.41359 0.22436,-1.2678 0.75014,-1.40296c0.43251,-0.10948 0.63391,0.40008 0.65553,0.73528c0.00228,0.25433 -0.02862,0.50786 -0.0919,0.7542c0.58929,-0.48252 1.50297,-1.0894 0.52983,-1.64084c-0.30571,-0.15864 -0.54518,-0.42064 -0.67581,-0.73932c-0.17842,-0.38657 -0.39872,-0.60823 -0.83123,-0.67581c-0.1548,-0.02278 -0.31121,-0.03273 -0.46766,-0.02973c0.14597,-0.60282 0.30816,-1.20158 0.48252,-1.79357c0.01487,-0.04866 0.02973,-0.09731 0.04326,-0.14463c0.05271,-0.17572 0.10678,-0.35142 0.16219,-0.52577c0.02028,-0.06082 0.0419,-0.1311 0.06352,-0.19598c0.0838,-0.25951 0.17029,-0.51901 0.25951,-0.77582l0.13516,-0.3798l0.1284,-0.35142c0.05811,-0.15274 0.11624,-0.30682 0.17572,-0.45955c0.03515,-0.09056 0.06892,-0.18112 0.10407,-0.27032c0.10678,0.07975 0.21085,0.15814 0.30816,0.23383c1.01641,0.80691 1.85034,2.08281 1.58002,3.41145c0.30275,0 0.54875,-0.2514 0.64066,-0.55146c0.11624,-0.38521 0.00136,-0.80691 -0.08786,-1.18671c-0.01707,-0.06392 -0.00374,-0.13214 0.03612,-0.18493c0.03987,-0.05279 0.10182,-0.0843 0.16798,-0.08539c0.49346,0.07297 0.97545,-0.19025 1.18078,-0.64487c0.20533,-0.45462 0.08417,-0.99028 -0.29684,-1.31225c-0.04618,-0.04655 -0.06825,-0.11183 -0.05979,-0.17684c0.00846,-0.06501 0.0465,-0.12247 0.10305,-0.15566c0.76638,-0.31393 1.30587,-1.01435 1.41377,-1.83547c0.00223,-0.075 0.04317,-0.14347 0.10819,-0.18094c0.06501,-0.03747 0.14478,-0.03856 0.2108,-0.00289c0.68932,0.29465 1.48405,0.67851 1.80034,1.40837c0.17976,0.41089 0.02162,1.02046 0.48928,1.23671c0.55416,0.25545 1.11372,-0.17842 1.52866,-0.5055c0.06196,-0.05684 0.15124,-0.0726 0.22893,-0.04042c0.07769,0.03218 0.12967,0.10646 0.1333,0.19045c0.17823,1.63447 0.6354,3.2263 1.3516,4.70627c0.04661,0.08341 0.03215,0.18762 -0.03542,0.25518c-0.06756,0.06756 -0.17177,0.08202 -0.25518,0.03542c-0.38521,-0.20544 -0.88395,0.31086 -1.21643,0.46225c-0.3825,0.17436 -0.75554,0.14597 -1.15156,0.02973c-0.5082,-0.14867 -0.95558,-0.30411 -1.48676,-0.16895c-0.3704,0.09511 -0.70433,0.29782 -0.95964,0.58254l1.29348,0.02973c0.06619,0.00121 0.12818,0.03267 0.16823,0.08537c0.04005,0.05271 0.05377,0.12086 0.0372,0.18495c-0.12652,0.64228 0.09731,1.30345 0.58795,1.7368c0.05153,0.0542 0.07119,0.1313 0.05189,0.20356c-0.0193,0.07226 -0.0748,0.12929 -0.14649,0.15055c-0.35278,0.11084 -0.70689,0.246 -1.06642,0.3325c-0.18354,0.065 -0.38699,0.03943 -0.54875,-0.06892c-0.18112,-0.1365 -0.2879,-0.37304 -0.38791,-0.58389c-0.03758,0.06644 -0.08296,0.12814 -0.13516,0.18382c-0.22436,0.23653 -0.52983,0.27167 -0.82582,0.37169c-0.41764,0.14057 -0.89881,0.53524 -0.66634,1.02722c0.03633,0.0661 0.03559,0.14636 -0.00196,0.21179c-0.03753,0.06542 -0.10646,0.10656 -0.18186,0.10856c-0.82555,0.07973 -1.58229,0.4945 -2.09362,1.14751c-0.11084,0.1365 -0.30411,0.04056 -0.35412,-0.09461c-0.00072,-0.00448 -0.00072,-0.00903 0,-0.01351c0.01081,0.27437 0.10543,0.55956 0.08245,0.82989c-0.02835,0.26762 -0.1383,0.52007 -0.31492,0.72311c-0.43521,0.53118 -1.10832,0.70553 -1.66111,1.07182c-1.307,0.86368 -0.08516,2.57886 -0.86368,3.72231c-0.03382,0.05617 -0.09145,0.09382 -0.15648,0.10224c-0.06503,0.00843 -0.13034,-0.01329 -0.17736,-0.05899c-0.29877,-0.35278 -0.4806,-0.78965 -0.52037,-1.25023c-0.02162,-0.27977 0.0892,-0.5501 0.06892,-0.82042c-0.00762,-0.11918 -0.07456,-0.22656 -0.1782,-0.28587z" fill="#74b140" fill-rule="evenodd" stroke="none" stroke-width="1"/><path d="M204.76915,185.40776c-0.36493,-0.10001 -0.72986,-0.1311 -1.02316,-0.39331c-0.19463,-0.173 -0.31356,-0.38521 -0.57173,-0.469c-0.03379,-0.27843 -0.06488,-0.55686 -0.09326,-0.83799c0.14597,0.04866 0.28654,0.11218 0.40548,0.16355c0.2595,0.11252 0.5083,0.24823 0.74339,0.40548c0.20815,0.14057 0.39872,0.34331 0.62174,0.45685c0.29735,0.15003 0.65012,0.08245 0.97315,0.07975c0.32303,-0.0027 0.64472,0.01081 0.96775,0.03109c0.16759,0.01217 0.30141,0.23517 0.15003,0.36223c-0.30816,0.25951 -0.66364,0.54469 -1.08127,0.58118c-0.43251,0.03649 -0.69877,-0.26762 -1.0921,-0.3798z" fill="#74b140" fill-rule="evenodd" stroke="none" stroke-width="1"/><path d="M207.79132,185.78214c0.39738,0.01081 0.90828,0.22302 0.65417,0.70689c-0.0376,0.06573 -0.10812,0.10565 -0.18382,0.10407c-0.44062,-0.02839 -0.79474,0.10001 -1.21643,0.16895c-0.20147,0.04223 -0.41146,0.00546 -0.58659,-0.10271c-0.06236,-0.00896 -0.11848,-0.0427 -0.15562,-0.09358c-0.03715,-0.0509 -0.05219,-0.11462 -0.04171,-0.17674c0.00505,-0.08739 0.05667,-0.16533 0.13516,-0.20408c0.12705,-0.15948 0.26492,-0.35142 0.45549,-0.40548c0.27573,-0.07975 0.65687,-0.00541 0.93936,0.0027z" fill="#74b140" fill-rule="evenodd" stroke="none" stroke-width="1"/><path d="M212.12322,155.51979c0.2631,-0.30546 0.53343,-0.60552 0.81097,-0.90017c0.02949,0.04254 0.05482,0.08779 0.07569,0.13516c0.20274,0.45008 -0.11895,0.7961 -0.57444,0.7961c-0.10471,-0.00252 -0.20907,-0.01291 -0.31222,-0.03109z" fill="#74b140" fill-rule="evenodd" stroke="none" stroke-width="1"/><path d="M213.87392,154.32536c-0.07988,0.03272 -0.17159,0.01447 -0.23286,-0.04635c-0.07344,-0.05828 -0.15166,-0.11028 -0.23383,-0.15544c0.20365,-0.20815 0.40953,-0.41493 0.61768,-0.62038c0,0.03243 0,0.06488 0,0.10001c-0.00541,0.17572 -0.01757,0.35006 -0.01757,0.52577c-0.00101,0.08631 -0.05355,0.16365 -0.13343,0.19636z" fill="#74b140" fill-rule="evenodd" stroke="none" stroke-width="1"/><path d="M214.35336,153.18423c0.25411,-0.24194 0.51226,-0.48117 0.77177,-0.7177c0.01622,-0.01351 0.03243,-0.02703 0.0473,-0.0419c0.23923,-0.21491 0.48117,-0.42576 0.72581,-0.63525l0.10814,-0.0919c0.23517,-0.19824 0.47306,-0.39602 0.71364,-0.59335l0.08245,-0.06622c0.26492,-0.21265 0.53254,-0.4217 0.80284,-0.62714c0.49604,0.11218 1.05561,0.09597 1.42324,0.52441c0.05147,0.05429 0.07124,0.13132 0.05225,0.20368c-0.01899,0.07236 -0.07403,0.12977 -0.14552,0.1518l-1.08127,0.30141c-0.28384,0.07839 -0.62174,0.12435 -0.87585,0.27977c-0.22977,0.13921 -0.30816,0.40008 -0.56903,0.50009c-0.21896,0.08516 -0.44062,0.0419 -0.66634,0.0419c-0.4663,0.00811 -0.30005,0.23517 -0.4663,0.52713c-0.08662,0.14747 -0.23605,0.24709 -0.40548,0.27032c-0.17436,0.03649 -0.35142,-0.02703 -0.51767,-0.02703z" fill="#74b140" fill-rule="evenodd" stroke="none" stroke-width="1"/><path d="M226.44207,162.32645c-0.25812,0.04811 -0.50625,0.13951 -0.73392,0.27032c-0.20138,0.1284 -0.33384,0.31899 -0.5055,0.47981c-0.32573,0.30275 -0.65147,0.32303 -1.08127,0.30275c-1.06372,-0.05001 -1.54083,1.00424 -1.87467,1.85169c-0.2879,0.72986 -0.60282,1.46107 -1.29483,1.89224c-0.066,0.03716 -0.14671,0.03685 -0.21241,-0.00086c-0.0657,-0.0377 -0.10671,-0.10721 -0.10792,-0.18295c-0.03139,-0.38935 -0.27601,-0.72922 -0.63525,-0.88259c-0.18382,-0.07705 -0.40548,-0.09867 -0.54065,-0.25545c-0.16759,-0.18517 -0.10948,-0.38114 -0.09597,-0.60416c0.02162,-0.39197 -0.1284,-0.69607 -0.29601,-1.04344c-0.23517,-0.48658 -0.37574,-0.95424 -0.30816,-1.49487c0.06488,-0.52577 0.27843,-1.01641 0.48792,-1.49757c0.24058,-0.56903 0.52848,-1.16779 0.54065,-1.80168c0.01217,-0.74339 -0.40819,-1.32321 -0.7988,-1.91252c-0.3379,-0.51226 -0.22166,-1.18941 -0.64336,-1.64354c-0.38846,-0.42264 -0.99932,-0.55809 -1.53002,-0.33925c-0.05697,0.03238 -0.12564,0.03681 -0.18631,0.01202c-0.06066,-0.02479 -0.10657,-0.07606 -0.12455,-0.13907c-0.05492,-0.23292 -0.0093,-0.4782 0.12569,-0.67581l-0.50009,-0.16355c-0.07148,-0.0216 -0.12663,-0.07876 -0.14565,-0.15099c-0.01902,-0.07221 0.00082,-0.14913 0.05239,-0.20313c0.08524,-0.10676 0.18809,-0.19818 0.30411,-0.27032c-0.22742,-0.20382 -0.35926,-0.49344 -0.36359,-0.7988c0.00074,-0.1169 0.09531,-0.21147 0.21221,-0.21221l1.32998,-0.00676l-0.17572,-0.65957c-0.01764,-0.06397 -0.00455,-0.13249 0.03544,-0.18545c0.03998,-0.05296 0.10231,-0.08432 0.16865,-0.08487c0.74203,0.08245 1.29212,-0.15544 1.95846,-0.42576c0.46766,-0.19327 1.00154,-0.18382 1.50027,-0.173c0.44488,-0.0074 0.88681,0.07346 1.30025,0.23788c0.21228,0.09484 0.40485,0.22871 0.56767,0.39467l0.12165,0.13516c0.10948,0.0865 0.14597,0.0865 0.10948,0c0.02162,-0.04866 -0.03649,-0.20408 -0.02973,-0.27032c0.03243,-0.35682 0.37304,-0.56767 0.69743,-0.60687c0.32439,-0.0392 0.63525,0.06622 0.95964,-0.01622c0.28384,-0.07435 0.54605,-0.23113 0.82448,-0.3298c0.42036,-0.14867 0.94341,-0.19598 1.27861,0.15408c0.14817,0.15082 0.2316,0.35355 0.23247,0.56497c0.67715,-0.13516 1.81385,-0.33654 1.90171,0.40548c0.01922,0.1568 -0.03458,0.31373 -0.14597,0.42576c0.13739,-0.00413 0.2745,0.01507 0.40548,0.05677c0.07149,0.02202 0.12653,0.07943 0.14552,0.1518c0.01899,0.07236 -0.00077,0.1494 -0.05225,0.20368c-0.39467,0.40683 0.21355,0.16895 0.41629,0.10678c0.21402,-0.06478 0.4376,-0.09221 0.66093,-0.08109c0.4459,0.02234 0.87261,0.18827 1.21643,0.47306c0.05496,0.05358 0.07623,0.13291 0.05541,0.20679c-0.16084,0.65147 -0.938,0.43387 -1.27997,0.87313c-0.20274,0.25951 -0.16895,0.65417 -0.21761,0.96369c-0.05252,0.2876 -0.1664,0.5605 -0.33384,0.80014c-0.42576,0.70553 0.18517,1.67869 -0.20679,2.41531c-0.16803,0.33309 -0.57054,0.47206 -0.90828,0.31356l-0.16219,0.22572c0.53096,0.48288 0.58471,1.29931 0.12165,1.84764c-0.03985,0.04878 -0.10276,0.0725 -0.16489,0.06218c0.06003,0.06456 0.06996,0.1611 0.02432,0.23653c-0.43387,0.78258 -1.32457,0.86638 -2.09903,1.04884z" fill="#74b140" fill-rule="evenodd" stroke="none" stroke-width="1"/><path d="M228.96282,165.67978c-0.38927,-0.03109 -0.94477,-0.11895 -1.18671,-0.4636c-0.27032,-0.38657 -0.02298,-1.03533 -0.4217,-1.34215c-0.11638,-0.16143 -0.11638,-0.37921 0,-0.54065c0.22032,-0.37844 0.50145,-0.26356 0.72716,-0.20544c0.19787,0.0521 0.37487,0.16397 0.50685,0.32033c0.23113,0.26762 0.3744,0.40819 0.75014,0.30816c0.50685,-0.13516 0.92315,-0.58795 1.48676,-0.48928c0.419,0.07705 0.36763,0.41359 0.29871,0.75284c-0.09326,0.4636 -0.20544,1.03397 -0.62444,1.3124c-0.46205,0.27684 -1.00057,0.39855 -1.53676,0.34735z" fill="#74b140" fill-rule="evenodd" stroke="none" stroke-width="1"/><path d="M238.52041,156.21779c-0.07035,-0.01915 -0.12605,-0.07289 -0.14775,-0.1425c-0.10271,-0.49198 -0.68932,-0.70419 -0.58929,-1.28131c0.08516,-0.50415 0.54065,-0.71905 1.00424,-0.63931c0.06113,0.0093 0.11267,0.05053 0.13516,0.10814c0.21625,-0.08786 0.42576,-0.34061 0.56092,-0.44738c0.15864,-0.13036 0.3428,-0.22612 0.54065,-0.28113c0.41223,-0.10948 0.85557,-0.0392 1.26105,0.06218c0.2906,0.07299 0.68255,0.15814 0.75284,0.50415c0.05407,0.28384 -0.18923,0.57037 -0.43521,0.64336c-0.246,0.07299 -0.49198,-0.01217 -0.72581,-0.07569c-0.15814,-0.0392 -0.22977,-0.0892 -0.39061,0c-0.20544,0.11895 -0.12569,0.17842 -0.12569,0.38927c0.00676,0.41764 -0.06622,0.86502 -0.42846,1.12723c-0.21625,0.15544 -0.56363,0.21896 -0.76365,0c-0.09098,-0.09905 -0.12692,-0.23677 -0.09597,-0.36763l-0.01081,0.01217c-0.09867,0.12029 -0.23247,0.23113 -0.34195,0.34061c-0.054,0.04898 -0.12925,0.06704 -0.1996,0.04787z" fill="#74b140" fill-rule="evenodd" stroke="none" stroke-width="1"/><path d="M255.43122,189.21791c-0.52171,2.39639 -2.68427,3.81827 -3.90073,5.82406c-0.33599,0.53108 -0.57019,1.12003 -0.69066,1.7368c-0.12705,0.72986 0.05407,1.41377 0.16489,2.13012c0.1365,0.89206 0.0419,1.99902 -0.87313,2.44504c-0.23113,0.11354 -0.49739,0.15138 -0.69066,0.35952c-0.19327,0.20815 -0.22166,0.51631 -0.24464,0.78663c-0.03785,0.44738 -0.04596,0.87719 -0.20679,1.30429c-0.35142,0.938 -1.03533,1.75032 -1.6449,2.53156c-0.54875,0.70419 -0.96909,1.6449 -1.7341,2.14229c-0.49064,0.32169 -1.15698,0.35818 -1.72599,0.40548c-0.5055,0.04056 -1.21239,0.14597 -1.69356,-0.06758c-0.32033,-0.14193 -0.49064,-0.61227 -0.62578,-0.90557c-0.20249,-0.44149 -0.36662,-0.89956 -0.49064,-1.36917c-0.30141,-1.09615 -0.58254,-2.18014 -0.91098,-3.27899c-0.32844,-1.09885 -0.55956,-2.23825 -0.39331,-3.38576c0.09326,-0.64606 0.27303,-1.27861 0.20949,-1.93684c-0.05529,-0.55345 -0.24054,-1.08602 -0.54065,-1.55434c-0.26896,-0.419 -0.73122,-0.72175 -0.93396,-1.17724c-0.20274,-0.45549 -0.02839,-0.90151 0.13516,-1.33674c0.10407,-0.26626 0.23383,-0.59199 0.13516,-0.87855c-0.10814,-0.31492 -0.44602,-0.30816 -0.7096,-0.40548c-0.34601,-0.12705 -0.61227,-0.3744 -0.89747,-0.59876c-0.21761,-0.17165 -0.48252,-0.38927 -0.78258,-0.31899c-0.20544,0.04866 -0.36763,0.22302 -0.54065,0.34331c-0.37844,0.26356 -0.79203,0.28384 -1.23807,0.25411c-0.34601,-0.02432 -0.67985,-0.05811 -1.01369,0.06218c-0.22166,0.07975 -0.42576,0.20408 -0.63931,0.30275c-0.35278,0.16084 -0.72716,0.26896 -1.11372,0.16084c-0.44198,-0.12299 -0.78122,-0.46225 -1.09074,-0.78122c-0.40548,-0.41764 -0.83529,-0.82718 -1.20698,-1.27321c-0.33925,-0.40548 -0.32709,-0.80961 -0.46225,-1.29212c-0.1284,-0.43927 -0.54065,-0.59065 -0.81097,-0.92585c-0.2227,-0.2606 -0.23833,-0.63968 -0.03785,-0.91774c0.1365,-0.21491 0.32709,-0.3771 0.3379,-0.64742c0.00559,-0.28887 -0.15975,-0.55386 -0.4217,-0.67581c-0.06481,-0.03868 -0.10476,-0.10835 -0.10543,-0.18382c-0.04015,-0.7613 0.23623,-1.50532 0.76365,-2.05579c0.15003,-0.15274 0.33654,-0.26356 0.48387,-0.41493c0.20408,-0.20949 0.16219,-0.40683 0.20408,-0.65823c0.04114,-0.25412 0.23556,-0.45608 0.48792,-0.50685c0.30952,-0.0865 0.61633,-0.03649 0.82989,-0.32439c0.16084,-0.21896 0.21221,-0.51631 0.27032,-0.77718c0.11624,-0.54065 0.23788,-1.07453 0.65687,-1.4719c1.04074,-0.98532 2.5748,-0.57984 3.848,-0.66904c0.48398,-0.0404 0.95365,-0.18421 1.37728,-0.4217c0.26221,-0.13516 0.54605,-0.28924 0.85016,-0.28924c0.64742,-0.01351 0.81772,0.54335 1.07453,1.01369c0.21896,0.40278 0.57173,0.45955 0.9772,0.5947c0.27638,0.09115 0.53348,0.23276 0.75824,0.41764c0.30411,0.24464 0.60823,0.62174 1.00559,0.70824c0.20138,0.04326 0.56903,-0.02162 0.69202,-0.22032c-0.14733,-0.37033 0.15948,-0.7569 0.55686,-0.7988c0.36088,-0.04056 0.74743,0.1311 1.08127,0.22977l1.20428,0.35412c0.61227,0.18112 1.31376,0.31492 1.76384,0.76365c0.45008,0.44872 0.82582,1.00154 1.20833,1.50839c0.42336,0.55068 0.81072,1.12811 1.15968,1.72869c0.3298,0.58389 0.55956,1.20969 0.87042,1.80034c0.32573,0.61904 0.86368,0.99613 1.27997,1.53676c0.32439,0.42036 0.52307,1.13264 1.08127,1.29889c0.49604,0.14597 1.04614,-0.20544 1.48676,-0.3798c0.41764,-0.16489 0.85151,-0.27032 1.28402,-0.09597c0.09951,0.04032 0.15547,0.14651 0.13246,0.2514z" fill="#74b140" fill-rule="evenodd" stroke="none" stroke-width="1"/><path d="M277.1001,180c-0.00091,0.28023 -0.0045,0.56047 -0.01081,0.8407c0,0.06082 0,0.12165 0,0.18112c-0.00676,0.24058 -0.01622,0.47847 -0.02703,0.7177c-0.00541,0.11488 -0.01757,0.22977 -0.01757,0.34331c-0.00811,0.15948 -0.01892,0.31899 -0.02973,0.47711c-0.01487,0.21221 -0.02973,0.41223 -0.0473,0.61768c-0.00947,0.03379 -0.00947,0.06622 -0.00947,0.10001c-0.02884,0.33159 -0.06218,0.66139 -0.10001,0.98937c-0.02793,0.25229 -0.05902,0.5037 -0.09326,0.7542c-0.04685,0.33881 -0.09776,0.6767 -0.15274,1.01369c-0.00811,0.05541 -0.01757,0.11084 -0.02703,0.16625c-0.04326,0.2505 -0.08831,0.50009 -0.13516,0.74879c-0.02028,0.10543 -0.0392,0.21085 -0.06082,0.31492c-0.02568,0.1311 -0.05271,0.25815 -0.07975,0.39331c-0.04326,0.20815 -0.0892,0.41629 -0.13516,0.62308c-0.02162,0.09461 -0.0446,0.18923 -0.06758,0.28384c-0.04596,0.18382 -0.0892,0.36223 -0.13516,0.54065l-0.05677,0.22977c-0.13337,0.51451 -0.27798,1.02496 -0.43387,1.53136c-0.08289,0.27032 -0.1694,0.54065 -0.25951,0.81097v0.01081c-0.09101,0.27032 -0.18382,0.54065 -0.27843,0.81097c-0.412,-0.5172 -0.75042,-1.08894 -1.00559,-1.69897c-0.25115,-0.62088 -0.42193,-1.27131 -0.5082,-1.9355c-0.09731,-0.6704 -0.173,-1.34619 -0.48522,-1.94901c-0.25951,0.20949 -0.59742,0.32844 -0.85421,0.02568c-0.18653,-0.21896 -0.25411,-0.54605 -0.37844,-0.80284c-0.15243,-0.312 -0.32677,-0.61281 -0.52171,-0.90017c-0.22032,-0.32439 -0.45008,-0.76501 -0.88666,-0.71094c-0.25275,0.03109 -0.4217,0.12435 -0.68526,0.03785c-0.17451,-0.05847 -0.32938,-0.16422 -0.44738,-0.30546c-0.13494,0.49223 -0.38937,0.94351 -0.74068,1.31376c-0.29601,0.29194 -0.65823,0.4717 -0.88259,0.83259c-0.17874,0.31402 -0.29872,0.658 -0.35412,1.01505c-0.22842,1.19617 -0.15544,2.7843 -1.44486,3.40198c-0.10154,0.05635 -0.22945,0.02305 -0.2906,-0.07569c-0.54065,-1.02046 -1.08127,-2.04632 -1.45433,-3.14112c-0.2933,-0.85287 -0.32439,-1.85845 -0.67581,-2.70321c-0.02298,0.12165 -0.04596,0.24464 -0.06758,0.36629c-0.01878,0.07294 -0.07574,0.12989 -0.14867,0.14867c-0.46496,0.06352 -0.7569,-0.20138 -1.00559,-0.56903c-0.34601,-0.51226 -0.64472,-1.05965 -0.95694,-1.6003l-0.03379,0.00676c-0.69877,0.07435 -1.39756,0.15544 -2.09769,0.22436c-0.44602,0.0419 -0.8853,0.05541 -1.25699,-0.22842c-0.22302,-0.16489 -0.37844,-0.41223 -0.62849,-0.53254c-0.07977,-0.03733 -0.16371,-0.06501 -0.25005,-0.08245c0.49198,0.6731 0.63931,1.80574 1.51244,1.9801c0.11263,0.03156 0.17892,0.14787 0.14867,0.26086c-1.00559,2.49911 -3.74665,3.23303 -6.13087,3.7534c-0.06409,0.01657 -0.13224,0.00285 -0.18495,-0.0372c-0.05271,-0.04005 -0.08417,-0.10204 -0.08537,-0.16823c-0.09867,-1.06101 -1.24077,-1.6868 -1.68275,-2.59914c-0.26762,-0.5501 -0.41223,-1.14075 -0.71364,-1.68139c-0.2487,-0.44332 -0.86772,-1.51785 -1.49352,-1.40566c-0.11258,0.02724 -0.22693,-0.03792 -0.26086,-0.14867c-0.15408,-0.58929 -0.94207,-0.938 -0.70553,-1.63813c0.11895,-0.35682 0.47306,-0.61093 0.67581,-0.91909c0.22304,-0.34583 0.36659,-0.73682 0.42036,-1.14481c-0.80284,-0.02162 -1.6057,-0.04056 -2.40855,-0.06352c-0.56497,-0.01081 -1.02586,-0.09731 -1.24077,-0.67581c-0.09056,-0.24464 -0.09597,-0.51631 -0.18923,-0.7596c-0.07435,-0.19598 -0.35818,-0.65687 -0.59876,-0.2514c-0.07569,0.11624 -0.01351,0.39467 0,0.52171c0.04056,0.3771 0.03785,0.8934 -0.35278,1.10832c-0.45819,0.25275 -0.78663,-0.24058 -0.92719,-0.60146c-0.14057,-0.36088 -0.18653,-0.7596 -0.35412,-1.10966c-0.17842,-0.37169 -0.5055,-0.59199 -0.82853,-0.82582l-1.06101,-0.76771c-0.06488,-0.0473 -0.4244,-0.3744 -0.49334,-0.35142c-0.26356,0.0865 0.02839,0.32303 0.10678,0.41493c0.51535,0.58832 1.14971,1.06053 1.86115,1.38539c0.07153,0.04442 0.11052,0.12653 0.09976,0.21004c-0.01076,0.08351 -0.06931,0.15304 -0.14977,0.17787c-0.3379,0.06352 -0.41493,0.50145 -0.54065,0.77177c-0.10359,0.24288 -0.2834,0.44545 -0.51226,0.57714c-0.48483,0.25963 -1.08324,0.16459 -1.46378,-0.23247c-0.05805,-0.06157 -0.07456,-0.15148 -0.04218,-0.22965c0.03238,-0.07817 0.10762,-0.13008 0.1922,-0.13258c0.14167,-0.00354 0.28259,-0.02211 0.42036,-0.05541c0.13284,-0.02461 0.25077,-0.1003 0.32844,-0.21085l-0.11354,-0.34871c-0.11895,-0.10271 -0.41359,-0.0865 -0.56767,-0.18517c-0.30411,-0.19734 -0.45819,-0.54335 -0.59335,-0.86368c-0.07346,-0.21968 -0.18661,-0.424 -0.33384,-0.60282c-0.08989,-0.10686 -0.20649,-0.188 -0.3379,-0.23517c-0.24194,-0.06488 -0.30816,0.10543 -0.44332,0.25951c-0.18517,0.20815 -0.39331,0.40548 -0.69743,0.27032c-0.27707,-0.12435 -0.39602,-0.4663 -0.4217,-0.74743c-0.01081,-0.11488 0.03515,-0.66364 -0.07299,-0.72175c-0.07839,-0.04056 -0.11218,0.39331 -0.11218,0.43791c0,0.25411 0.01487,0.5528 -0.13516,0.77312c-0.05875,0.08997 -0.14366,0.15979 -0.24328,0.20004c-0.04997,0.01784 -0.10241,0.02786 -0.15544,0.02973l0.13516,0.07435c0.06367,0.03909 0.10246,0.10844 0.10246,0.18314c0,0.07471 -0.03879,0.14406 -0.10246,0.18314c-0.33062,0.23333 -0.63194,0.5056 -0.89747,0.81097c-0.25411,0.31628 -0.29194,0.64876 -0.43657,1.00694c-0.22302,0.53388 -1.06372,0.70149 -1.57462,0.70824c-0.62444,0.01351 -1.11102,-0.37844 -1.33944,-0.94613c-0.25681,-0.63795 -0.11218,-1.32591 0.06622,-1.96793h-0.12029c-0.27032,-0.01081 -0.27032,-0.43521 0,-0.4244c0.4519,0.02298 0.90495,-0.00195 1.3516,-0.07435c0.36088,-0.06082 0.83529,-0.12976 1.11372,-0.38385c0.43387,-0.39197 0.02432,-0.75284 -0.27032,-1.04208l-0.90017,-0.88666c-0.05805,-0.06157 -0.07456,-0.15148 -0.04218,-0.22965c0.03238,-0.07817 0.10762,-0.13008 0.1922,-0.13258c0.57173,0 1.16238,-0.01081 1.71112,-0.19057c0.65417,-0.21355 0.96234,-0.65553 1.24077,-1.25699c0.419,-0.90962 1.29212,-1.49352 2.27881,-1.21643c0.05795,-0.02217 0.12333,-0.01188 0.17165,0.02703c0.25411,0.18517 0.48792,0.31899 0.77312,0.11624c0.09867,-0.07164 0.17029,-0.17842 0.27707,-0.24734c0.2464,-0.14149 0.52101,-0.22686 0.8042,-0.25005c0.32709,-0.04326 0.67445,-0.04056 0.98803,-0.15138c0.52983,-0.18653 0.62714,-0.61768 0.54065,-1.11913c-0.11218,-0.65687 0.2933,-1.08263 0.92315,-1.19752c0.40008,-0.07435 0.8042,-0.04056 1.19347,-0.17572c0.30947,-0.11317 0.58748,-0.29851 0.81097,-0.54065c-0.68677,-0.15807 -1.40712,-0.07304 -2.03821,0.24058c-0.21221,0.10678 -0.40683,0.24734 -0.65147,0.14733c-0.20607,-0.10563 -0.36691,-0.28232 -0.45279,-0.49739c-0.20274,-0.42981 -0.14597,-0.93936 0.02432,-1.36917c0.09283,-0.23514 0.21939,-0.45552 0.37574,-0.65417c0.17572,-0.22706 0.44872,-0.48252 0.50279,-0.75284c0.05407,-0.27032 -0.16219,-0.5582 -0.45143,-0.40548c-0.15067,0.09865 -0.26873,0.23976 -0.33925,0.40548c-0.11556,0.25671 -0.25112,0.5039 -0.40548,0.73932c-0.19327,0.26221 -0.44062,0.48792 -0.60687,0.76905c-0.22842,0.38521 -0.19463,0.69607 0.01757,1.07317c0.29194,0.52037 0.04326,0.8934 -0.0446,1.44216c-0.0865,0.49604 -0.19057,0.9799 -0.67581,1.2259c-0.37033,0.18787 -0.7961,0.10001 -0.98262,-0.2879c-0.12029,-0.25275 -0.11354,-0.55146 -0.18382,-0.82178c-0.06103,-0.23583 -0.15188,-0.46293 -0.27032,-0.67581c-0.37033,0.4663 -0.63121,1.15292 -1.31646,1.12994c-0.74339,-0.02432 -1.18805,-0.94613 -1.33134,-1.56921c-0.17165,-0.74473 0.18787,-1.25023 0.82582,-1.59083c0.80961,-0.43251 1.36106,-0.98803 1.93009,-1.70301c0.62941,-0.77097 1.21598,-1.57594 1.75708,-2.41125c0.38927,-0.61363 0.86097,-1.15426 1.65841,-1.08127c0.85691,0.07705 1.6449,0.65957 2.45587,0.91234c0.69877,0.21625 1.54219,0.27977 2.14094,0.73798c0.21761,0.17165 0.48117,0.42036 0.3798,0.7123c-0.09474,0.23104 -0.28279,0.41124 -0.51767,0.49604c-0.65957,0.27167 -1.24482,-0.09597 -1.87603,-0.23113c0.25072,0.59367 0.79359,1.013 1.43135,1.10561c0.19338,0.03027 0.3908,0.02246 0.58118,-0.02298c0.31356,-0.07975 0.41359,-0.34061 0.54065,-0.61093l0.61497,-1.29212c0.10407,-0.21625 0.47306,-0.05947 0.38791,0.16355c-0.00809,0.01627 -0.01531,0.03297 -0.02162,0.05001v0.00947c-0.06488,0.18517 0.07569,0.27303 0.4244,0.26221c0.02568,-0.0419 0.05271,-0.0838 0.07975,-0.12569c0.04834,-0.09724 0.0838,-0.20039 0.10543,-0.30682c0.04614,-0.15713 0.11539,-0.30655 0.20544,-0.44332c0.19205,-0.24731 0.45309,-0.43216 0.75014,-0.53118c0.88936,-0.34331 1.91656,-0.45279 2.86269,-0.60012c0.00811,-0.40683 0.35818,-0.66498 0.78122,-0.65012c0.31464,0.03592 0.62454,0.10523 0.92449,0.20679l0.85691,0.20815c-0.28113,-0.54199 -0.56633,-1.08398 -0.81097,-1.63813c-0.17165,-0.38927 -0.23923,-0.90692 0.173,-1.17724c0.45413,-0.30005 0.88395,0.1311 1.08127,0.5109c0.16084,0.30952 0.29735,0.56633 0.59742,0.76635c0.15687,0.10144 0.32295,0.18787 0.49604,0.25815c-0.04056,-0.44872 0.05271,-0.93666 0.47847,-1.06101c-0.0474,-0.17605 -0.06523,-0.35875 -0.05271,-0.54065c0.00146,-0.07534 0.04228,-0.14439 0.10757,-0.18201c0.06528,-0.03762 0.1455,-0.03831 0.21142,-0.0018c0.45685,0.26762 0.95153,0.54605 1.48001,0.52848c-0.40412,-0.40278 -0.98126,-0.73122 -0.91234,-1.37458c0.06622,-0.56903 0.57714,-0.82178 1.08127,-0.94613c-0.19598,-0.39331 -0.04596,-0.89611 0.26221,-1.2286c0.51496,-0.55686 1.3097,-0.88395 1.99496,-1.16913c0.21085,-0.0865 0.4244,-0.17029 0.63661,-0.25275c0.27573,-0.10543 0.49875,-0.21625 0.5082,-0.52441c0.00676,-0.24328 -0.0473,-0.51496 0.08786,-0.73528c0.08146,-0.16598 0.25471,-0.26673 0.43927,-0.25545c0.21805,0.18022 0.43476,0.36043 0.65012,0.54065c0.21176,0.18022 0.4217,0.36043 0.62985,0.54065l0.01487,0.01217c0.20635,0.18292 0.41089,0.36808 0.61363,0.5555l0.01487,0.01351c0.20365,0.18923 0.40503,0.38025 0.60416,0.57308c0.08786,0.0919 0.17976,0.17976 0.27032,0.27032c1.91735,1.89516 3.62317,3.99298 5.08743,6.25656c0.16219,0.24959 0.32078,0.501 0.47577,0.7542c-0.00025,0.00316 -0.00025,0.00631 0,0.00947c0.15317,0.2514 0.30366,0.50415 0.45143,0.75824l0.01217,0.01892c0.14463,0.25005 0.29194,0.50415 0.4271,0.75824l0.01757,0.02973c0.13516,0.2514 0.27032,0.50415 0.40548,0.75824l0.02298,0.0419c0.1284,0.25005 0.25411,0.50279 0.37844,0.75554l0.02703,0.05541c0.12074,0.2505 0.23878,0.50145 0.35412,0.75284c0.01081,0.02432 0.02298,0.0473 0.03379,0.07028c0.11218,0.24734 0.22166,0.49739 0.3298,0.74743l0.03785,0.0865c0.10407,0.24464 0.20408,0.49064 0.30411,0.73798l0.0419,0.10543c0.09731,0.24194 0.18923,0.48658 0.28113,0.73122c0.01487,0.04056 0.03109,0.08109 0.04596,0.12299c0.0892,0.23923 0.173,0.47981 0.25681,0.72175l0.05001,0.14193c0.0793,0.23699 0.15678,0.47441 0.23247,0.7123c0.01757,0.05407 0.03649,0.10678 0.05271,0.16084c0.07569,0.23247 0.14193,0.46766 0.21085,0.70149c0.01757,0.06082 0.03649,0.12029 0.05271,0.17976c0.06622,0.22842 0.12705,0.45819 0.18787,0.68932c0.01892,0.06758 0.03785,0.1338 0.05541,0.20274c0.05811,0.22436 0.11218,0.45008 0.16625,0.67581c0.01757,0.07435 0.03649,0.14867 0.05407,0.22302c0.05137,0.22166 0.09867,0.44332 0.14597,0.66634c0.01757,0.08109 0.03649,0.16084 0.05271,0.24058c0.0446,0.21761 0.08516,0.43521 0.12705,0.65417c0.01622,0.0865 0.03379,0.17436 0.05001,0.26221c0.03785,0.21221 0.07299,0.4271 0.10678,0.64202c0.01487,0.09326 0.03243,0.18653 0.0473,0.27977c0.03109,0.21085 0.05947,0.42306 0.0892,0.63525c0.01351,0.09867 0.02839,0.19598 0.04056,0.29465c0.02703,0.21085 0.05001,0.4217 0.07299,0.63255c0.01217,0.10137 0.02432,0.20274 0.03515,0.30411c0.02162,0.21085 0.0392,0.42306 0.05677,0.63391c0.00811,0.10407 0.01892,0.20679 0.02703,0.31086c0.01757,0.21896 0.02973,0.44062 0.04326,0.66228c0.00541,0.09597 0.01757,0.19057 0.01757,0.28654c0.01217,0.23923 0.02703,0.47847 0.02703,0.7177c0.0027,0.07975 0.00947,0.15948 0.00947,0.23788c0,0.32439 0.00045,0.64516 0.00136,0.96234zM250.45868,175.51809c-0.1452,-0.17456 -0.33831,-0.30282 -0.5555,-0.36899c-0.14867,-0.05541 -0.30546,-0.08786 -0.45549,-0.14327c-0.11769,-0.03631 -0.22701,-0.09556 -0.32169,-0.17436c-0.03893,-0.03413 -0.06125,-0.08339 -0.06125,-0.13516c0,-0.05177 0.02233,-0.10104 0.06125,-0.13516c0.07164,-0.29601 0.42981,-0.78799 -0.11084,-0.87313c-0.2933,-0.0419 -0.65417,0.08245 -0.94613,0.13516c-0.30906,0.05586 -0.61768,0.11488 -0.92585,0.17706c-0.05207,-0.04952 -0.12532,-0.06993 -0.19551,-0.05449c-0.07017,0.01544 -0.12809,0.06473 -0.15457,0.13154c-0.24734,0.6677 -0.58389,1.43269 -0.65283,2.14769c-0.0446,0.469 0.34331,0.72716 0.77988,0.54875c0.31628,-0.1284 0.5555,-0.36088 0.89476,-0.45955c0.38791,-0.11084 0.72445,-0.12165 1.04884,0.13516c0.35682,0.28249 0.98396,0.2514 1.38945,0.06758c0.40278,-0.18517 0.469,-0.65687 0.20544,-0.99884zM253.32138,176.84266c0.04866,0.48658 0.47306,0.86908 0.87178,1.10696c0.34465,0.20544 0.82718,0.2933 1.12319,-0.07839c0.29601,-0.37169 0.03785,-0.69877 -0.19868,-0.99207c-0.09326,-0.11488 -0.14463,-0.02298 -0.06622,-0.19193c0.02568,-0.04326 0.10407,-0.0892 0.13516,-0.1284c0.06209,-0.07498 0.1081,-0.16194 0.13516,-0.25545c0.05395,-0.18092 0.00171,-0.37681 -0.13516,-0.50685c-0.23113,-0.20408 -0.52983,-0.21491 -0.72581,-0.49334c-0.18868,-0.29866 -0.27415,-0.65098 -0.24328,-1.00288c0.21145,-0.17103 0.27603,-0.46583 0.15544,-0.7096c-0.17165,-0.37169 -0.64742,-0.47441 -1.01641,-0.37169c-1.03533,0.28924 -1.06912,1.46648 -0.5109,2.2031c0.14463,0.18923 0.68121,0.57444 0.62985,0.84476c-0.04056,0.20949 -0.17436,0.33384 -0.15408,0.57578zM256.56792,181.95442h-0.03785c-0.48205,0.02614 -0.96372,-0.05798 -1.40837,-0.246c-0.49739,-0.23113 -0.77041,-0.59606 -1.1313,-0.98262c-0.0919,-0.09867 -0.29601,-0.31763 -0.45685,-0.22706c-0.18653,0.10407 0.01622,0.41359 0.07705,0.52848c0.13224,0.25646 0.28692,0.50069 0.46225,0.72986c0.33654,0.41629 0.79203,0.78799 1.3516,0.81097c0.469,0.01892 0.95694,-0.18246 1.14345,-0.61363z" fill="#74b140" fill-rule="nonzero" stroke="none" stroke-width="1"/><path d="M255.00007,200.49839c-0.10241,0.43783 -0.26576,0.85913 -0.48522,1.25158c-0.25005,0.48928 -0.56092,0.89881 -0.68526,1.44756c-0.09326,0.41089 -0.15408,0.83934 -0.38657,1.20158c-0.28654,0.44468 -1.15832,0.90828 -1.42864,0.17436c-0.23247,-0.63931 -0.12165,-1.45433 0.35682,-1.93684c-0.169,-0.61853 -0.0417,-1.28047 0.34465,-1.79223c0.26626,-0.34465 0.63525,-0.47711 0.96369,-0.77041c0.32844,-0.2933 0.52713,-0.69877 0.72175,-1.08127c0.04947,-0.08138 0.14686,-0.12017 0.23873,-0.09509c0.09189,0.02508 0.15604,0.10798 0.15729,0.20321c-0.02568,0.48522 0.2933,0.88936 0.20274,1.39756z" fill="#74b140" fill-rule="evenodd" stroke="none" stroke-width="1"/><path d="M231.70657,169.65079c0.03491,-0.09311 0.13555,-0.14372 0.23113,-0.11624c0.09555,-0.02118 0.19504,-0.01605 0.2879,0.01487c0.06493,0.01944 0.11572,0.07023 0.13516,0.13516c0.16417,0.06929 0.31094,0.17407 0.42981,0.30682c0.23113,0.26896 0.23788,0.64742 0.28924,0.98262c0.04056,0.26086 0.09461,0.5109 -0.19734,0.62578c-0.4189,0.14997 -0.85318,0.25287 -1.29483,0.30682c-0.26086,0.03515 -0.53254,-0.00676 -0.63391,-0.29871c-0.10137,-0.29194 0.0892,-0.51226 0.27707,-0.69743c0.10572,-0.09063 0.1847,-0.2084 0.22842,-0.34061c0.00487,-0.13028 0.00171,-0.26072 -0.00947,-0.39061c0.00613,-0.14517 0.05296,-0.28568 0.13516,-0.40548c0.03461,-0.04646 0.07555,-0.08787 0.12165,-0.12299z" fill="#74b140" fill-rule="evenodd" stroke="none" stroke-width="1"/><path d="M233.43932,169.27774c-0.16049,-0.37136 -0.19836,-0.78423 -0.10814,-1.1786c0.05001,-0.22977 0.16625,-0.39197 0.41359,-0.40548c0.47981,-0.02703 0.57714,0.11759 0.76231,0.58389c0.19598,0.49468 0.62578,0.83799 0.82042,1.34079c0.10001,0.24281 0.14035,0.50608 0.11759,0.76771c-0.01351,0.13246 -0.05947,0.246 -0.08516,0.38114c-0.0473,0.23923 0.01081,0.43791 0.03515,0.67581c0.04866,0.45955 -0.19463,0.56227 -0.58118,0.70824c-0.3298,0.12165 -1.06372,0.36899 -1.32591,-0.01351c-0.23517,-0.35412 0.10814,-1.03263 0.27032,-1.3516c0.19193,-0.36223 0.31763,-0.61363 0.05677,-0.96909c-0.1454,-0.16486 -0.27146,-0.34579 -0.37574,-0.53929z" fill="#74b140" fill-rule="evenodd" stroke="none" stroke-width="1"/><path d="M267.53482,190.31137c0.08287,0.215 0.1121,0.44696 0.08516,0.67581c0.01205,0.23398 -0.00383,0.46857 -0.0473,0.69877c-0.09461,0.37574 -0.52171,0.55956 -0.81097,0.24058c-0.15138,-0.16625 -0.16759,-0.38927 -0.16759,-0.60282c-0.00947,-0.31899 0,-0.63931 0,-0.95964c0.00057,-0.03446 0.00938,-0.06829 0.02568,-0.09867c0.00391,-0.04651 0.02343,-0.09034 0.05541,-0.12435c0.25681,-0.28654 0.70013,-0.15408 0.85961,0.17029z" fill="#74b140" fill-rule="evenodd" stroke="none" stroke-width="1"/><path d="M274.70911,193.14162c-0.07975,0.20815 -0.15274,0.40412 -0.24194,0.62308c-0.0892,0.21896 -0.17842,0.43791 -0.27032,0.65417c-0.15948,-0.24328 -0.31763,-0.48658 -0.47847,-0.72986l-0.63255,-0.95828c-0.19327,-0.29194 -0.37844,-0.62038 -0.72311,-0.74879c-0.22302,-0.0027 -0.30141,-0.35682 -0.05541,-0.41493h0.01622c0.01826,-0.00645 0.03742,-0.01009 0.05677,-0.01081c0.53658,-0.09056 0.93396,0.22706 1.28672,0.61363c0.32743,0.34467 0.67544,0.66919 1.04208,0.97179z" fill="#74b140" fill-rule="evenodd" stroke="none" stroke-width="1"/><path d="M249.61258,157.61073c0.52577,-0.62444 1.08127,-1.22726 1.62192,-1.84088l0.81097,-0.91909c0.21355,-0.24464 0.41493,-0.52577 0.68526,-0.71634c0.36088,-0.25275 0.88259,-0.27977 1.08127,0.17436c0.19868,0.45413 -0.0892,0.88936 -0.45413,1.14481c-0.63525,0.44468 -2.35854,1.97604 -1.63679,2.79916c0.26086,0.29735 0,1.13264 -0.15544,1.18805c-0.11624,0.24734 -0.74879,0.18653 -0.72851,0.13516c-0.43117,-0.10407 -0.48117,-0.11488 -0.81097,-0.43251c-0.41764,-0.40142 -0.83393,-1.01641 -0.41359,-1.53272z" fill="#74b140" fill-rule="evenodd" stroke="none" stroke-width="1"/><path d="M266.19607,191.71371c-3.16491,3.09767 -9.97099,5.24018 -17.85665,5.24018c-8.67836,0 -16.04918,-2.59491 -18.69811,-6.2021" fill="none" fill-rule="nonzero" stroke="#000000" stroke-width="2.5"/><path d="M247.77023,175.99622c0,6.02594 -2.31723,10.91093 -5.17569,10.91093c-2.85846,0 -5.1757,-4.88499 -5.1757,-10.91093c0,-6.02594 2.31724,-10.91093 5.1757,-10.91093c2.85846,0 5.17569,4.88499 5.17569,10.91093z" fill="#ffffff" fill-rule="nonzero" stroke="#000000" stroke-width="1.5"/><path d="M262.35811,175.87632c0,6.02594 -2.31724,10.91093 -5.1757,10.91093c-2.85846,0 -5.17569,-4.88499 -5.17569,-10.91093c0,-6.02594 2.31723,-10.91093 5.17569,-10.91093c2.85846,0 5.1757,4.88499 5.1757,10.91093z" fill="#ffffff" fill-rule="nonzero" stroke="#000000" stroke-width="1.5"/><path d="M248.39932,173.70313c0,4.5774 -1.7602,8.28811 -3.93154,8.28811c-2.17133,0 -3.93154,-3.71072 -3.93154,-8.28811c0,-4.5774 1.7602,-8.28811 3.93154,-8.28811c2.17133,0 3.93154,3.71072 3.93154,8.28811z" fill="#000000" fill-rule="nonzero" stroke="#000000" stroke-width="0"/><path d="M262.47801,173.49215c0,4.5774 -1.76021,8.28811 -3.93155,8.28811c-2.17133,0 -3.93154,-3.71072 -3.93154,-8.28811c0,-4.5774 1.7602,-8.28811 3.93154,-8.28811c2.17133,0 3.93155,3.71072 3.93155,8.28811z" fill="#000000" fill-rule="nonzero" stroke="#000000" stroke-width="0"/></g></g></svg>